<?xml version="1.0" encoding="UTF-8" standalone="no"?>
<!-- Created with Inkscape (http://www.inkscape.org/) -->

<svg
   width="512.00006"
   height="511.99997"
   viewBox="0 0 135.46668 135.46666"
   version="1.1"
   id="svg1"
   xml:space="preserve"
   xmlns:inkscape="http://www.inkscape.org/namespaces/inkscape"
   xmlns:sodipodi="http://sodipodi.sourceforge.net/DTD/sodipodi-0.dtd"
   xmlns="http://www.w3.org/2000/svg"
   xmlns:svg="http://www.w3.org/2000/svg"><sodipodi:namedview
     id="namedview1"
     pagecolor="#ffffff"
     bordercolor="#999999"
     borderopacity="1"
     inkscape:showpageshadow="0"
     inkscape:pageopacity="0"
     inkscape:pagecheckerboard="0"
     inkscape:deskcolor="#d1d1d1"
     inkscape:document-units="mm"
     showgrid="true"><inkscape:grid
       id="grid3"
       units="px"
       originx="-511.99993"
       originy="9.0876998e-05"
       spacingx="135.46666"
       spacingy="135.46666"
       empcolor="#0099e5"
       empopacity="0.30196078"
       color="#0099e5"
       opacity="0.14901961"
       empspacing="5"
       dotted="false"
       gridanglex="30"
       gridanglez="30"
       visible="true" /></sodipodi:namedview><defs
     id="defs1" /><g
     inkscape:label="Layer 1"
     inkscape:groupmode="layer"
     id="layer1"
     transform="translate(-135.46665,2.4044539e-5)"><path
       style="fill:#000000;stroke-width:1.13787"
       d="m 199.48614,135.36491 c -13.79159,-0.75715 -27.71211,-6.07664 -38.52003,-14.71977 -12.89523,-10.31236 -21.86403,-25.318195 -24.57918,-41.12378 -0.81669,-4.754125 -0.92569,-6.208077 -0.92007,-12.273192 0.004,-4.996726 0.0444,-5.94204 0.34638,-8.207222 1.05154,-7.891149 2.97869,-14.374058 6.2672,-21.082791 3.39983,-6.935877 7.3065,-12.449717 12.68597,-17.904899 5.60936,-5.688294 11.50239,-9.914958 18.61338,-13.3500953 7.04936,-3.4053624 14.24316,-5.4653779 22.41987,-6.4201473 3.50831,-0.409657 11.26142,-0.3677005 14.96038,0.0809579 8.33266,1.0106955 15.13625,2.9756401 22.25269,6.4267928 4.29673,2.083728 7.90711,4.2908649 11.49279,7.0259189 10.81179,8.246895 19.38008,20.352232 23.26983,32.875769 2.10122,6.76518 2.96065,11.986881 3.13537,19.049809 0.36271,14.662236 -3.64149,28.285987 -11.81761,40.207889 -6.25368,9.11874 -15.17,16.94859 -25.22483,22.15116 -10.40414,5.38332 -22.41441,7.92062 -34.38214,7.2636 z m 2.21771,-40.939452 c 0.1807,-0.126674 0.4008,-0.482447 0.4891,-0.790603 0.15765,-0.550211 0.0712,-0.740153 -4.81612,-10.574603 l -4.97667,-10.014317 24.27008,-0.121061 c 22.36351,-0.111556 24.31136,-0.14113 24.79553,-0.37648 0.289,-0.140481 0.60963,-0.424835 0.71252,-0.631897 0.22897,-0.460863 0.2713,-8.655187 0.0478,-9.24368 -0.079,-0.208132 -0.33,-0.500546 -0.55763,-0.649826 -0.3932,-0.257866 -1.63105,-0.275168 -24.80789,-0.346701 l -24.39403,-0.07536 2.60265,-5.345988 c 1.43146,-2.940301 3.64944,-7.480629 4.92885,-10.089623 2.50229,-5.102749 2.55287,-5.269554 1.78195,-5.876451 -0.75978,-0.598136 -1.13902,-0.443156 -3.73061,1.524545 -1.32006,1.002286 -5.07471,3.76035 -8.34364,6.12903 -18.76229,13.595196 -24.66188,17.911816 -25.31641,18.523519 -0.28652,0.267781 -0.41378,0.536563 -0.41378,0.873963 0,0.76202 -0.0611,0.714893 15.19736,11.730176 15.83256,11.429783 15.83918,11.434587 18.42661,13.392136 1.32093,0.99935 2.53973,1.899312 2.70845,1.999917 0.4239,0.252743 1.00478,0.237444 1.39594,-0.03677 z"
       id="path4" /></g></svg>
