<?xml version="1.0" encoding="UTF-8" standalone="no"?>
<!-- Created with Inkscape (http://www.inkscape.org/) -->

<svg
   width="511.99994"
   height="511.99982"
   viewBox="0 0 135.46665 135.46662"
   version="1.1"
   id="svg1"
   xml:space="preserve"
   xmlns:inkscape="http://www.inkscape.org/namespaces/inkscape"
   xmlns:sodipodi="http://sodipodi.sourceforge.net/DTD/sodipodi-0.dtd"
   xmlns="http://www.w3.org/2000/svg"
   xmlns:svg="http://www.w3.org/2000/svg"><sodipodi:namedview
     id="namedview1"
     pagecolor="#ffffff"
     bordercolor="#999999"
     borderopacity="1"
     inkscape:showpageshadow="0"
     inkscape:pageopacity="0"
     inkscape:pagecheckerboard="0"
     inkscape:deskcolor="#d1d1d1"
     inkscape:document-units="mm"
     showgrid="true"><inkscape:grid
       id="grid3"
       units="px"
       originx="0"
       originy="-2.4202556e-10"
       spacingx="135.46666"
       spacingy="135.46666"
       empcolor="#0099e5"
       empopacity="0.30196078"
       color="#0099e5"
       opacity="0.14901961"
       empspacing="5"
       dotted="false"
       gridanglex="30"
       gridanglez="30"
       visible="true" /></sodipodi:namedview><defs
     id="defs1" /><g
     inkscape:label="Layer 1"
     inkscape:groupmode="layer"
     id="layer1"><path
       style="fill:#000000;stroke-width:1.38486"
       d="m 56.921234,135.26935 c -0.811821,-0.32887 -1.565504,-1.03826 -1.870527,-1.76061 -0.22313,-0.52839 -0.397182,-2.22329 -0.679232,-6.61424 -0.40448,-6.29697 -0.450185,-6.52197 -1.396603,-6.87539 -0.282779,-0.10562 -1.618822,-0.5827 -2.968981,-1.06022 -1.35016,-0.47752 -4.020684,-1.64583 -5.934496,-2.59624 -1.913814,-0.95041 -3.673113,-1.77532 -3.909554,-1.83314 -0.538646,-0.13171 -1.074542,0.20944 -3.076478,1.95857 -2.644755,2.31079 -6.892046,5.7726 -7.498882,6.1121 -0.790122,0.44201 -2.356228,0.42286 -3.2989,-0.0403 -0.842204,-0.41385 -13.505118,-13.36657 -13.868847,-14.18625 -0.296339,-0.66782 -0.290589,-2.12652 0.01127,-2.85309 0.316498,-0.76187 1.10457,-1.69439 5.162985,-6.109308 2.419509,-2.632044 3.318575,-3.73174 3.318575,-4.059125 0,-0.246971 -0.598289,-1.640807 -1.329531,-3.097414 C 18.212092,89.525792 17.524506,87.716271 16.5079,84.164449 16.184711,83.03529 15.775315,81.95348 15.598129,81.760426 15.184025,81.309237 15.042679,81.291595 9.0010664,80.937072 6.2007344,80.772748 3.5031806,80.557946 3.0065029,80.459735 1.7765003,80.216518 0.84999407,79.551142 0.38571003,78.577599 0.0069744,77.78344 0,77.58506 0,67.605368 0,59.135405 0.0440264,57.334977 0.26418315,56.800108 0.60673411,55.967907 1.6324242,55.061969 2.4979093,54.827174 2.874267,54.725069 5.8959928,54.529972 9.2128577,54.393619 c 4.3504733,-0.178846 6.1094033,-0.314253 6.3132883,-0.486014 0.155445,-0.130945 0.494232,-0.956853 0.75286,-1.835333 1.148777,-3.902053 1.870179,-5.828391 3.213204,-8.580125 1.140453,-2.336678 1.413735,-3.051745 1.324292,-3.465116 -0.10896,-0.503595 -0.850607,-1.389256 -5.692587,-6.798018 -1.232978,-1.377304 -2.399025,-2.812362 -2.591216,-3.189017 -0.471187,-0.923428 -0.457145,-2.341224 0.03306,-3.337171 0.244479,-0.496716 2.655035,-3.092095 6.68072,-7.192946 6.829982,-6.957509 7.004031,-7.095997 8.7081,-6.928927 1.616351,0.158471 1.483162,0.06046 8.274197,6.089379 1.57365,1.397053 3.069091,2.593063 3.3232,2.657802 0.497993,0.126871 0.503431,0.124415 4.63508,-2.094657 2.73764,-1.470362 5.171147,-2.539842 7.467501,-3.281824 0.84346,-0.272532 1.668674,-0.63171 1.833809,-0.798171 0.247866,-0.249858 0.368305,-1.316978 0.69038,-6.1169707 C 54.393318,5.8386376 54.64907,2.9144579 54.747081,2.5383346 54.984257,1.6281542 55.734453,0.75445428 56.635549,0.33897205 57.320503,0.02314914 58.06226,1.2872063e-4 67.553454,1.2872063e-4 c 11.398301,0 11.024051,-0.0408392806 12.211812,1.33234867937 0.695196,0.8037249 0.677613,0.6958865 1.256138,7.7040329 0.307031,3.7193317 0.548789,5.7610547 0.712434,6.0167237 0.136231,0.212846 0.479066,0.472787 0.761845,0.577646 0.282781,0.104854 1.49608,0.541671 2.696222,0.970692 2.407782,0.860724 5.393006,2.246931 7.852603,3.646407 0.881684,0.501665 1.795957,0.96143 2.031716,1.021701 0.66697,0.170506 1.258006,-0.152695 2.72488,-1.49007 3.407166,-3.106382 7.695216,-6.65412 8.377636,-6.931287 0.97718,-0.396886 1.93127,-0.38021 2.83417,0.04953 0.47845,0.227727 2.94969,2.610781 7.22159,6.963894 7.10026,7.23524 7.38879,7.607445 7.15005,9.223481 -0.15212,1.029683 -0.67692,1.727724 -4.35606,5.793954 -4.6119,5.09713 -4.46947,4.921715 -4.46947,5.504721 0,0.291806 0.44277,1.446332 0.98393,2.565611 1.27472,2.63649 2.50364,5.783789 3.11863,7.986964 0.69322,2.483382 1.03073,3.099189 1.76121,3.213556 0.32534,0.05094 2.02353,0.141107 3.77374,0.200375 4.92805,0.166884 8.53577,0.452134 9.16004,0.724254 0.6985,0.30447 1.66164,1.312813 1.92102,2.011163 0.12769,0.343795 0.19165,3.93502 0.18899,10.613431 -0.004,9.418707 -0.0264,10.143196 -0.33968,10.832141 -0.18463,0.406078 -0.53173,0.921249 -0.77131,1.144823 -0.99434,0.927895 -1.40397,0.983277 -11.21462,1.516243 -2.33867,0.127052 -3.0348,0.225302 -3.29595,0.465192 -0.18209,0.167268 -0.55436,1.110459 -0.82731,2.09598 -0.73999,2.671966 -1.62387,4.976717 -3.11761,8.129262 -1.35026,2.849741 -1.50952,3.427082 -1.13911,4.129645 0.11107,0.210704 1.92073,2.294516 4.0214,4.630697 2.10069,2.33618 3.93274,4.52291 4.07126,4.85941 0.35537,0.86335 0.30611,2.05251 -0.12522,3.02323 -0.27317,0.61469 -2.00932,2.50155 -6.67863,7.25833 -3.47022,3.53525 -6.6131,6.58777 -6.98416,6.78337 -0.90979,0.47959 -2.47604,0.47363 -3.41577,-0.0126 -0.39154,-0.20277 -1.51341,-1.05727 -2.49305,-1.8989 -5.803252,-4.9857 -7.157246,-6.03862 -7.765336,-6.03862 -0.388164,0 -1.519269,0.48194 -3.217023,1.37071 -2.941182,1.53968 -5.354797,2.55408 -8.166203,3.43208 -1.04918,0.32766 -2.047198,0.71963 -2.217818,0.87104 -0.393076,0.34883 -0.436617,0.69858 -0.879194,7.0623 -0.201223,2.89331 -0.44706,5.51574 -0.546307,5.82761 -0.09924,0.31189 -0.444848,0.82681 -0.768003,1.14429 -1.198883,1.1778 -0.912751,1.15086 -12.083074,1.13798 -6.211378,-0.007 -10.31752,-0.0822 -10.592569,-0.19367 z"
       id="path3"
       sodipodi:nodetypes="csssssssccscsssssssssssssssssssssssssssssssssssssssssssssssssscsssscsssscsscssssssssccc" /></g></svg>
